<?xml version="1.0" encoding="UTF-8"?><svg xmlns="http://www.w3.org/2000/svg" viewBox="0 0 448.15 369.74"><g id="a"/><g id="b"><g id="c"><g><path d="M146.01,46.99c.34,0,.68,0,1.04-.04,1.06-.1,2.11-.2,3.17-.3,16.51-1.53,33.01-3.33,49.57-3.08,11.4,.16,22.83,1.31,33.89,4.17,2.18,.56,4.42,1.27,6.7,2,6.45,2.08,13.19,4.33,19.67,4.07,.18,0,.37,.01,.55,0,.14,0,.25-.04,.39-.05,7.14-.52,10.85-4.06,11.87-8.62,.25-1.14,.29-2.31,.23-3.49-.02-.48-.01-.96-.08-1.45-.16-1.28-.53-2.57-1-3.88-.13-.39-.24-.77-.4-1.16-.62-1.52-1.45-3.05-2.42-4.5-.07-.07-.14-.14-.14-.21-18.08-26.05-51.96-23.97-80.64-16.14-3.07,.85-6.09,1.78-9.04,2.74-3.76,1.21-7.39,2.48-10.8,3.76-9.68,3.61-19.15,7.26-27.08,14.07-1.99,1.71-3.07,3.48-3.43,5.14-.35,1.6-.03,3.08,.88,4.26,1.31,1.7,3.8,2.77,7.07,2.7Z"/><path d="M299.75,107.3c6.58-22.1,6.44-44.55-5.13-65.4,1.46-2.01,2.49-4.36,2.84-6.86,.55-3.88-.42-7.69-2.84-10.6-2.42-2.98-5.96-4.71-9.91-4.85-2.29-.14-4.64,.28-6.72,1.18C253.61-1.89,219.59-6.05,176.56,8.5c-43.79,14.76-86.26,45.66-109.19,64.29-.14,.07-.21,.21-.35,.28-7.41,2.29-14.34,5.96-20.37,10.88-3.39,2.84-6.44,5.96-9.14,9.35q-.07,.14-.14,.28c-.42,.42-.76,.9-1.04,1.39-.48,.62-.9,1.18-1.32,1.8-23,32.98-26.05,75.52-9.7,110.92v.07c.07,.07,.07,.14,.07,.21-.35-.07-.76-.07-1.11-.14-2.35-.21-4.5-.62-6.44-1.11-.69-.21-1.39-.35-2.01-.55-2.29-.76-4.09-1.66-5.33-2.56-.21-.14-.35-.28-.62-.28-.21,0-.35-.07-.55-.14q-.07-.07-.14-.07c-.14-.07-.28-.07-.35-.07h-.14q-.07-.07-.14-.07h-.21c-.21,0-.42,0-.62,.07-.07,0-.14,0-.21,.07-.05,0-.08,.02-.11,.06-.2,.08-.34,.23-.53,.33-.06,.04-.14,.04-.2,.1-.28,.07-.55,.28-.76,.49-.42,.35-.62,.76-.76,1.25L.17,221.68c-.28,.83-.21,1.59,.14,2.29,.07,.28,.21,.42,.35,.62l7.97,12.12,.14,.14c.07,.07,.14,.14,.14,.21s.07,.07,.07,.14c.55,.55,1.25,.97,2.08,1.11h.42c.9,.14,2.84,.28,5.68,.28,5.54,0,14.48-.69,24.46-4.02,.28-.07,.55-.21,.9-.28l.14,.14c18.64,21.26,44.2,34.15,71.11,37.36l.11,.03h.06c4.34,.5,8.71,.78,13.1,.78,15.38,0,30.9-3.12,45.59-9.77,.69-.28,1.39-.62,2.08-.97,4.23-2.01,8.18-4.57,11.85-7.55,6.1-4.99,11.08-11.08,14.69-17.94,.21-.35,.42-.69,.62-1.11,.07-.07,.07-.21,.14-.28,4.09-3.33,7.97-6.86,11.99-10.32,30.28-27.09,58.47-57.64,76.9-94.36,3.6-7.21,6.65-14.97,8.87-23ZM178.71,14.73c15.94-5.33,30.48-8.04,43.72-8.04,19.81,0,36.51,6.03,50.02,18.01,.76,.69,1.52,1.39,2.29,2.15,0,0,.07,.07,.07,.14,.69,.97,1.32,1.94,1.87,2.98,2.22,3.74,3.95,7.69,5.27,11.78,.42,1.11,.76,2.22,1.04,3.33,.28,1.04,.55,2.15,.83,3.19,3.74,16.77,1.46,35.2-5.75,50.65-8.73,19.19-23.9,34.92-41.15,46.9-5.47,3.46-11.36,8.59-18.01,8.87-6.79,0-11.71-5.96-16.28-10.6-4.85-5.06-9.56-10.39-14.34-15.66-14.13-16-28.55-32.49-46.63-44.13-16.28-10.39-35.06-16.84-54.32-18.64,23.62-17.6,57.16-39.35,91.38-50.92Zm110.78,13.86c1.18,1.52,1.66,3.46,1.39,5.47-.07,.49-.14,.9-.28,1.32-1.45-2.01-2.98-4.02-4.57-6.03-.9-1.11-1.8-2.15-2.77-3.19h1.18c2.01,.14,3.81,.97,5.06,2.43ZM32.87,152.33c1.94,5.61,3.67,11.64,4.99,17.94,1.53,7.07,2.63,14.06,3.19,20.85,.28,3.46,.42,6.93,.48,10.25,0,1.39-.07,2.77-.07,4.16v1.32c-1.59,.35-3.12,.62-4.64,.83-.83-2.01-1.52-3.95-2.08-5.89-1.52-4.92-2.56-9.77-3.19-14.55-1.18-9.08-1.04-18.64,.28-28.41,.28-2.15,.62-4.36,1.04-6.51Zm9.14-29.31c1.11-2.36,2.22-4.64,3.46-7,.83-1.52,1.66-3.05,2.56-4.57,.83-1.52,1.73-2.98,2.7-4.43,.14-.28,.35-.55,.49-.83,2.01,4.23,3.88,8.66,5.2,13.23,1.46,5.2,2.49,10.53,3.12,16-5.27,8.87-9.08,17.74-11.5,26.54-.14,.55-.35,1.11-.49,1.59-.42,1.59-.76,3.19-1.11,4.78-.28,1.59-.55,3.19-.83,4.71-.07,.62-.14,1.32-.28,1.94-.07,.97-.21,1.87-.28,2.84-.21,2.42-.35,4.85-.42,7.27-.55-5.06-1.39-10.12-2.49-15.24-1.45-6.79-3.26-13.23-5.4-19.26l-.55-1.46c-.48-1.45-1.04-3.05-1.66-4.57,.97-3.74,2.01-7.41,3.33-10.95,.42-1.25,.83-2.49,1.32-3.67,.9-2.36,1.8-4.64,2.84-6.93Zm45.17-14.62c1.8,8.59,2.49,17.25,2.08,25.91-.14,2.01-.35,4.09-.55,6.1-11.92,12.12-20.72,24.18-26.74,36.79-1.45,2.98-2.63,5.82-3.67,8.66,1.25-4.02,2.35-8.11,3.26-12.33,2.77-12.54,3.6-24.73,2.56-36.3,6.1-10.53,13.86-20.44,22.93-29.45,0,.21,.07,.42,.14,.62Zm79.4,97.69c.76,.35,1.59,.69,2.43,1.04-1.9,1.31-3.88,2.57-5.88,3.81l-52.56,2.22c1.14-.46,2.28-.88,3.43-1.38,7.83-3.4,15.8-7.69,23.56-12.75,10.05,.9,19.81,3.26,29.03,7.07Zm-4.09,37.14c-3.46,1.32-6.93,2.56-10.46,3.6-.42,.14-.83,.28-1.25,.42-3.53,1.04-7.14,1.87-10.67,2.56-2.29,.49-4.57,.83-6.79,1.11-1.11,.14-2.22,.28-3.33,.42-2.56,.28-5.13,.48-7.62,.62-1.8-1.18-3.67-2.36-5.68-3.6-5.4-3.19-11.36-6.17-17.67-8.87-3.86-1.65-7.72-3.13-11.54-4.45l-3.84-1.78c2.18,.4,4.37,.75,6.58,1.03,.76,.14,1.52,.21,2.36,.28h.28c2.08,.21,4.16,.35,6.3,.35,.62,.07,1.25,.07,1.94,.07,1.39,0,2.77-.07,4.16-.14h.28c4.78-.21,9.63-.83,14.55-1.8,5.4-1.11,10.88-2.56,16.21-4.43,3.95,1.25,7.69,2.7,11.29,4.36,5.82,2.7,10.95,6.1,16.07,9.77-.35,.14-.76,.28-1.18,.49Zm-89.44-49.12c2.56-3.81,4.99-7.69,7.21-11.64,1.39-2.56,2.63-5.2,3.81-7.76,3.39-3.05,6.79-5.75,10.18-8.18,4.78-3.46,9.84-6.58,15.17-9.35-2.36,5.06-4.99,9.7-7.41,13.86-2.22,3.6-4.5,7.14-7,10.53-2.56,1.25-5.13,2.56-7.55,3.88-5.47,3.05-10.32,6.1-14.76,9.15l.35-.49Zm7,21.69c.83-.35,1.59-.76,2.36-1.11,4.09-2.01,8.24-4.36,12.33-6.93,3.33-2.08,6.51-4.23,9.42-6.37,4.85-1.11,9.7-1.87,14.48-2.36,3.74-.35,7.48-.49,11.29-.42-11.5,7.07-22.59,12.06-33.6,15.1-4.85,1.32-9.77,2.36-14.62,2.91-.28,.07-.48,.07-.69,.07-.35-.28-.69-.55-.97-.9Zm-34.22-13.16c.07,.62,.21,1.25,.35,1.87-.21,.35-.35,.76-.55,1.18h-.14c.07-.9,.07-1.87,.07-2.91,0-.49,.07-.97,.07-1.39l.21,1.25Zm66.17-51.48c-8.66,4.09-16.84,9.08-24.32,14.96,.69-2.15,1.45-4.23,2.01-6.3,1.73-5.89,2.98-11.92,3.67-17.88,6.37-6.37,13.37-12.47,21.06-18.29,1.46-1.18,2.91-2.22,4.37-3.19v.07c-.9,10.05-2.84,19.47-5.75,27.99-.35,.9-.62,1.8-1.04,2.63Zm-44.96,60.21q.07,.07,.07,.14l-.07,.07v-.21Zm70.56,43.64l-1.74,.17c2.84-.43,5.68-.93,8.5-1.55h.14c4.09-.9,8.17-2.01,12.19-3.33,.97-.28,1.94-.62,2.91-.97,2.84-.97,5.68-2.15,8.52-3.33,.62,.42,1.25,.9,1.87,1.39l.76,.55,.21,.14c.35,.28,.76,.42,1.11,.42,.49,0,.9-.21,1.18-.48,.21-.21,.35-.49,.35-.9,0-.28-.14-.69-.48-1.04-.48-.55-.97-1.11-1.46-1.66,.28-.14,.55-.28,.9-.42,1.04-.49,2.15-1.04,3.19-1.59,.28-.14,.55-.28,.83-.42,2.77-1.39,5.61-2.98,8.38-4.64,1.18-.76,2.42-1.52,3.67-2.42,1.04-.69,1.94-1.52,2.77-2.29,.48-.49,.97-.9,1.52-1.39,.49-.35,.42-1.18,0-1.73-.35-.48-.83-.69-1.25-.42-1.04,.48-2.15,1.04-3.19,1.52-1.39,.69-2.84,1.39-4.23,2.15l-1.66,.9c-1.94,1.04-3.88,2.15-5.89,3.19-3.05,1.52-5.96,2.84-8.8,4.09-4.92-4.23-10.6-7.34-14.83-9.56-3.53-1.8-7.27-3.46-11.02-4.85,11.02-4.3,21.69-10.05,31.59-17.18,1.66,.83,3.39,1.8,5.13,2.77,1.32,.76,2.63,1.52,3.88,2.29,2.98,1.87,6.1,3.74,9.42,4.99,.14,0,.21,.07,.35,.07,.21,0,.49-.14,.62-.35,.35-.42,.21-1.32-.07-1.66-2.49-3.33-6.17-5.47-9.77-7.62l-1.04-.62c-1.59-.9-3.12-1.8-4.78-2.63,3.33-2.49,6.37-5.13,9.22-7.83,1.94-1.87,3.81-3.81,5.47-5.75l.28-.28c1.59-1.8,3.26-3.67,3.95-6.03,.21-.62-.14-1.52-.69-1.94-.42-.28-.83-.28-1.18,0-2.42,1.66-4.43,3.95-6.44,6.17-1.04,1.18-2.15,2.42-3.33,3.53-3.19,3.05-6.65,6.1-10.39,8.87-.42,.35-.9,.69-1.32,1.04-.76-.35-1.46-.69-2.22-1.04-7.62-3.39-15.66-5.82-23.83-7.27-1.39-.21-2.7-.42-4.02-.62,6.72-4.71,13.3-9.98,19.54-15.66,2.08-1.87,4.02-3.74,5.75-5.54,2.15,.28,4.23,.69,6.37,1.11,2.01,.42,4.09,.9,6.03,1.39,3.19,.83,6.44,1.66,9.77,2.08,.48,.07,.9-.14,1.11-.55,.14-.62-.21-1.59-.83-1.94-4.43-2.42-9.42-3.6-14.55-4.71-1.59-.35-3.12-.62-4.71-.9,.76-.9,1.45-1.73,2.15-2.63,3.19-4.02,7.07-9.08,7.14-14.62,0-.42-.28-1.18-.76-1.45-.35-.07-.62,0-.9,.21-2.01,2.01-3.46,4.5-4.92,6.93-.76,1.32-1.59,2.7-2.43,3.95-1.59,2.22-3.46,4.5-5.54,6.79-1.53-.21-3.05-.35-4.57-.55-9.35-.97-18.36-.9-26.81,.14,4.78-7.07,8.94-14.69,12.33-22.59,.42-.9,.76-1.8,1.18-2.77,2.98-.55,5.89-.97,8.87-1.25,2.56-.35,5.13-.49,7.62-.62,.62-.07,1.18-.07,1.8-.07,1.87,0,3.88-.07,5.61-.76,.49-.21,.76-.55,.76-1.11,0-.69-.62-1.46-1.32-1.66-3.33-1.11-7.41-.62-11.01-.28-.62,.07-1.32,.14-2.01,.21-2.84,.28-5.75,.62-8.59,1.11,.9-2.42,1.66-4.78,2.42-7.21,.76-2.49,1.52-5.06,2.08-7.48,.28-1.04,.55-2.22,.76-3.39,.28-1.59,.21-2.29-.42-3.81-.21-.49-.69-.9-1.25-.97-.42-.07-.83,.07-1.11,.42-1.32,1.52-1.73,3.39-2.15,5.2-.07,.35-.14,.69-.28,1.04-.55,2.22-1.18,4.57-1.87,6.86-.97,3.39-2.22,6.86-3.53,10.25-8.87,1.73-17.6,4.3-25.98,7.69-.28,.14-.55,.28-.83,.35,2.56-7.55,4.3-15.73,5.2-24.39,.21-2.29,.42-4.57,.55-6.86,1.32-.76,2.63-1.52,4.02-2.22,2.49-1.32,4.85-2.43,7.14-3.26,.76-.28,1.53-.55,2.36-.83,2.01-.62,4.09-1.32,5.82-2.42,.35-.21,.48-.69,.35-1.18-.14-.48-.49-.97-1.04-1.04-5.2-.42-10.46,1.94-15.03,4.16-1.11,.55-2.29,1.11-3.39,1.73,.07-1.52,.07-2.98,0-4.5,0-2.36,0-5.33-.35-8.11-.35-3.12-.9-5.27-1.94-7.76-.21-.49-.76-.83-1.32-.83-.42,.07-.76,.35-.83,.83-.83,3.39-.55,7-.35,10.46,.07,1.39,.21,2.77,.21,4.09,.07,2.84,0,5.75-.14,8.59-1.32,.83-2.7,1.73-4.09,2.7-6.65,4.71-13.3,10.25-20.99,17.53,.49-8.38-.07-16.63-1.52-24.66-.42-2.15-.9-4.36-1.45-6.58,3.33-3.05,6.72-5.82,10.11-8.24,1.87-1.45,3.95-2.84,6.24-4.23,.55-.42,1.18-.76,1.87-1.11,1.73-.97,3.46-2.01,4.85-3.39,.35-.42,.42-1.04,.07-1.59-.28-.55-.83-.97-1.46-.83-4.23,1.04-8.04,3.53-11.64,5.96l-.42,.28c-3.74,2.49-7.48,5.27-11.01,8.38-.28-1.04-.62-2.01-.97-3.05l-.07-.14c-1.66-5.06-3.33-10.25-7-14.34-.28-.35-.62-.42-.97-.35-.42,.14-.69,.55-.69,1.04-.28,3.26,1.11,6.58,2.36,9.77,.48,1.25,.97,2.36,1.32,3.46,.83,2.42,1.52,4.78,2.15,7-6.17,5.82-11.99,12.33-17.32,19.54-1.87,2.49-3.67,4.99-5.27,7.48-.49-2.63-1.04-5.27-1.66-7.83-2.01-8.04-4.43-14.48-7.48-19.81,1.8-2.49,3.67-5.06,5.75-7.69,1.66-2.15,3.39-4.3,4.99-6.17,.28-.35,.62-.76,.97-1.11,.55-.69,1.11-1.39,1.66-2.08,.48-.62,.9-1.25,1.32-1.94,.42-.55,.76-1.18,1.18-1.73s.28-1.46-.14-1.94h-.07c-.07-.07-.14-.14-.21-.14,.28-.07,.55-.14,.9-.28,.35-.07,.69-.21,1.11-.28,1.45-.35,2.98-.69,4.5-.97,1.25-.14,2.49-.35,3.74-.42,8.87-.83,18.71,.76,29.24,4.71,42.68,16,83.49,65.68,90.97,110.64,1.94,11.57,1.45,21.89-1.32,30.55-.07,.07-.07,.14-.14,.28-.07,.35-.21,.62-.28,1.04-.69,1.94-1.39,3.88-2.29,5.75-.14,.28-.28,.62-.42,.9-1.25,2.63-2.7,5.2-4.36,7.55-1.94,2.7-4.09,5.27-6.44,7.55-.35,.28-.62,.55-.9,.83,.69-.28,1.32-.62,1.94-.97-.35,.28-.62,.55-.9,.83-.48,.44-.95,.85-1.43,1.27l-45.79,6.76ZM40.49,100.51c.42-.55,.76-1.11,1.18-1.66,.28-.42,.62-.83,.97-1.25,0-.07,.07-.14,.14-.21,2.35-3.05,5.13-5.82,8.11-8.31,1.18-.97,2.42-1.87,3.67-2.7,1.32-.9,2.63-1.8,4.02-2.49,1.53-.9,3.05-1.66,4.64-2.36,1.52-.69,3.05-1.25,4.57-1.8-.42,.35-.76,.62-1.11,.9-1.52,1.18-2.98,2.29-4.36,3.74-1.04,.97-2.08,2.08-3.19,3.33,0,.07-.07,.07-.07,.07-.62,.76-1.39,1.59-2.15,2.49-2.01,2.36-3.95,4.85-5.82,7.34-.14-.28-.28-.49-.42-.69-.21-.21-.42-.49-.62-.76-.21-.21-.42-.42-.69-.55-.55-.21-1.18-.28-1.66,.07-.14,.07-.21,.14-.28,.21-.14,.21-.21,.35-.28,.49,0,.14-.07,.28-.07,.42,0,.21,.07,.42,.21,.69,.14,.35,.35,.76,.49,1.11,.35,.69,.62,1.39,.97,2.08,0,.07,0,.14,.07,.21-.21,.21-.35,.49-.48,.69-.28,.35-.55,.76-.76,1.11-1.59,2.42-3.12,4.85-4.57,7.34-.97,1.8-1.94,3.53-2.91,5.33-2.29,4.36-4.29,8.87-6.03,13.37-1.11,3.05-2.15,6.03-3.05,9.08-.42-.55-.9-1.04-1.39-1.59-.48-.55-1.66-.9-2.35-.48-.28,.07-.76,.48-.49,1.45,.49,1.87,1.32,3.6,2.15,5.33,.14,.35,.28,.69,.48,1.04-3.6,14.2-4.71,28.61-3.19,41.78,.69,5.4,1.66,10.25,3.05,14.76-12.96-32.29-9.35-69.98,11.22-99.56ZM9.59,213.58l3.46,4.64-2.7,9.01-3.4-5.06,2.63-8.59Zm30.83,14.34c-.83,.28-1.66,.55-2.42,.76-.35,.07-.62,.21-.97,.28-9.01,2.63-16.7,3.05-21.13,2.98l2.91-9.77,.07-.28c.9,.28,1.94,.49,3.12,.69,1.18,.21,2.56,.42,4.02,.55,.97,.14,2.01,.21,3.12,.21,.55,.07,1.18,.07,1.73,.07,.69,0,1.39,0,2.15-.07h.21c.28,0,.55,0,.9-.07,.28,0,.55-.07,.83-.07h.07c.55,0,1.18-.07,1.8-.14,1.18-.14,2.43-.35,3.67-.55,.35-.07,.62-.14,.97-.21,1.18-.21,2.42-.48,3.67-.83,1.18-.35,2.43-.69,3.67-1.11,.97-.28,1.87-.62,2.84-1.04,2.91-1.11,5.96-2.49,9.14-4.16l.14,1.32c-5.47,4.43-11.09,7.55-16.42,9.84-.28,.14-.55,.21-.83,.35-1.11,.42-2.22,.83-3.26,1.25Z"/><path d="M381.36,216c5.06,9.08,9.08,18.78,12.06,28.89,.51,1.65,.98,3.3,1.42,4.96,.1,.37,.19,.74,.28,1.1,.41,1.6,.8,3.2,1.14,4.82,.28,1.18,.55,2.36,.76,3.46,.08,.44,.17,.87,.25,1.3,.05,.28,.1,.56,.15,.84,.08,.44,.17,.89,.22,1.32,2.84,15.8,3.26,32.01,1.18,47.87-.42,3.33-.97,6.72-.21,9.98,.1,.38,.22,.76,.35,1.13,.21,.58,.48,1.14,.8,1.68,1.18,2.05,3.01,3.64,5.32,3.94,.06,0,.12,.03,.18,.04,.12,.01,.24,0,.36,0,.62,.04,1.24,0,1.85-.14,1.89-.43,3.65-1.59,5.21-2.89,.23-.19,.46-.38,.69-.58,10.39-9.17,16.95-22.07,20.06-35.59,.42-1.8,.79-3.61,1.09-5.43,2.57-15.49,1.19-31.37-1.4-46.86-.09-.55-.21-1.13-.31-1.69-.22-1.33-.43-2.66-.72-3.97-.35-1.59-.69-3.19-1.11-4.71h0v-.03c-.33-1.28-.71-2.56-1.1-3.84-.08-.25-.14-.52-.22-.77h0c-.01-.06-.03-.1-.05-.14-3.33-10.68-9.07-20.59-19.7-24.66-2.61-.99-5.33-1.63-8.1-2.02-.03,0-.06-.01-.08-.02-.02,0-.04,0-.07,0-2.77-.38-5.6-.53-8.4-.53-.07,0-.13,0-.19,0h-.82c-1.89,.04-3.77,.21-5.59,.59-1.32,.28-2.6,.66-3.81,1.26-6.29,3.12-5.89,9.77-3.8,15.56,.66,1.84,1.48,3.59,2.32,5.11Z"/><path d="M448.08,258.61c-.07-2.01-.14-4.09-.21-6.1-.69-14.27-3.26-28.96-7.83-43.79,.9-7.14,.14-14.2-2.29-20.78-1.32-3.46-3.12-6.79-5.27-9.84l-.9-1.18-.14-.14c-.14-.21-.35-.42-.48-.55v-.07c-2.56-3.26-5.4-6.31-8.45-9.01l-.69-.69c-.28-.28-.55-.55-.83-.83-.35-.28-.62-.55-.9-.76h-.07c-5.4-4.64-11.36-8.59-17.81-11.85-.07-.07-.21-.14-.28-.14q-.07-.07-.14-.07c-.55-.35-1.11-.62-1.66-.9-8.04-3.81-16.77-6.58-25.91-8.24l-1.87-.35c-3.05-.55-6.17-.9-9.28-1.18-.14,0-.28,0-.42-.07l-1.94-.07h-.35c-8.8-.49-17.8,0-26.88,1.59-.21,0-.42,0-.62,.07l-1.87,.28h-.07c-1.52,.28-2.98,.62-4.5,1.04h-.14c-.21,0-.42,0-.55,.07l-1.94,.48-.07,.07c-.14,0-.28,.07-.42,.07s-.21,.07-.35,.07c.28-13.26,6.54-25.01,10.9-28.72,.14-.09,.25-.2,.38-.31,.02-.02,.07-.05,.08-.07,.07-.07,.14-.07,.21-.14,0-.07,.07-.14,.14-.21,.07-.14,.14-.21,.21-.35,.07-.07,.07-.14,.14-.21v-.07s0-.03,.01-.05c.14-.31,.24-.64,.27-.99,0-.07-.01-.14,0-.21v-.62l-.02-.02c-.15-.92-.67-1.75-1.48-2.27l-13.84-8.85s-.03,0-.05-.02c-.06-.06-.13-.06-.19-.13-.14-.07-.21-.07-.28-.14-.13-.06-.25-.06-.38-.06-.04-.01-.07-.03-.11-.04-.02,0-.03-.03-.06-.03-.01-.01-.04,0-.05-.01-.05-.01-.1-.03-.16-.04-.03,0-.03-.02-.07-.02h-.35c-.14-.07-.28,0-.35,0h-.21c-.09,0-.16,.03-.23,.05h-.03s-.07,.02-.09,.02c-.28,.07-.48,.21-.76,.28l-12.75,4.09h-.21c-.21,.07-.28,.14-.49,.21-.14,.07-.28,.14-.42,.21-.07,.07-.21,.21-.35,.28-.14,.14-.21,.21-.28,.35-.14,.14-.21,.28-.28,.35-.14,.21-.14,.35-.21,.49-.14,.14-.14,.28-.21,.42-1.32,3.19-8.24,22.24-1.66,45.31-.9,.42-1.8,.9-2.7,1.39l-1.59,.83c-.28,.14-.49,.28-.69,.42-1.45,.69-2.77,1.46-4.16,2.29l-1.52,.9c-8.04,4.78-15.31,10.46-21.75,16.77-.21,.14-.35,.28-.55,.42l-1.04,1.18c-.14,.07-.28,.21-.35,.42q-.07,0-.07,.07c-2.08,2.15-4.09,4.3-5.96,6.51v.07c-.14,.07-.21,.21-.28,.28-.28,.42-.62,.76-.97,1.18-.07,.07-.07,.14-.14,.21l-.21,.28c-.07,0-.07,.07-.07,.07-5.61,7.07-10.25,14.69-13.72,22.66-.07,.07-.07,.14-.14,.28-.07,0-.07,.07-.14,.14-.14,.35-.21,.62-.28,.9-.07,.07-.07,.14-.07,.14l-.28,.69c-.07,.21-.14,.42-.21,.62-2.84,6.93-4.85,14.13-5.75,21.41h0v.05c-.07,.54-.14,1.15-.21,1.68l-.07,.76c-.28,2.7-.49,5.4-.49,8.18,0,1.04,0,2.08,.07,3.12v1.73s.02,.04,.03,.05v.05c.02,.41,.05,.84,.11,1.34,0,.05,0,.09,0,.15v.28s.03,.06,.04,.07c0,.02,0,.04,0,.05,0,.09,.02,.16,.02,.21,0,0,0,.01,0,.02v.13c.35,3.39,1.18,6.86,2.42,10.12,2.36,6.24,6.1,11.78,11.02,16.35,23.62,55.22,69.98,91.11,113.69,91.11,9.01,0,17.94-1.52,26.47-4.71,34.57-12.89,55.36-50.02,57.64-94.36,.14-2.77,.28-5.54,.28-8.38v-.49c0-1.04,0-2.15-.07-3.19Zm-192.67-56.33c-.21,2.91-.28,5.68-.28,8.45-1.25-.21-2.56-.49-3.81-.83,1.25-2.56,2.63-5.13,4.09-7.62Zm13.3-17.46c3.26,1.8,6.58,3.26,9.98,4.36-1.04,5.06-1.59,9.7-1.59,13.99-2.98,2.43-5.82,4.85-8.45,7.41-.97,.21-1.94,.35-2.91,.42-1.04,.07-2.01,.14-3.12,.14v-3.46c.14-5.68,.83-11.71,2.15-18.43,1.25-1.52,2.56-2.98,3.95-4.43Zm15.17-13.37c-1.32,3.46-2.42,6.79-3.26,9.98-.35-.14-.69-.28-1.04-.42-1.73-.69-3.33-1.39-4.85-2.15,2.91-2.63,5.96-5.13,9.14-7.41Zm86.53-21.75c6.03,4.78,11.36,9.77,15.73,14.9,.07,.07,.14,.14,.14,.21-1.11,.97-2.29,1.87-3.46,2.7-.48,.28-.97,.62-1.38,.9-3.6-.21-7.34-.21-11.09-.07-2.49-2.91-5.61-5.54-8.59-7.97-.62-.55-1.32-1.04-2.01-1.59,.55-.9,1.11-1.8,1.52-2.7,1.32-2.56,2.42-4.92,3.33-7.14,1.94,.21,3.88,.48,5.82,.76Zm23.63,6.72c-.76,1.11-1.52,2.15-2.36,3.19-.28-.35-.62-.69-.83-1.04-1.59-1.73-3.19-3.46-4.99-5.2,2.77,.9,5.54,1.94,8.18,3.05Zm21.2,13.03c1.66,3.12,3.19,6.37,4.5,9.63-2.63-1.66-5.47-3.12-8.59-4.36-.55-.21-1.11-.49-1.66-.69-1.59-.62-3.26-1.18-4.99-1.73-1.18-.35-2.36-.69-3.6-.97-.21-.07-.49-.14-.76-.21-.28-.55-.62-1.04-.97-1.52-.69-1.18-1.52-2.36-2.36-3.53,.21-.14,.35-.35,.55-.55,1.59-1.73,2.98-3.53,4.23-5.4,4.85,2.7,9.49,5.82,13.65,9.35Zm-102.3-13.63c.98-.37,1.98-.72,2.94-1.05l.04,.27c.07,.55,.18,1.13,.24,1.73-.36,.62-.71,1.26-1.05,1.89-.32,.57-.65,1.13-.97,1.71-.06,0-.13,0-.13-.06-.42-1.52-.76-3.05-1.11-4.5h.03v.02Zm-3.08,3.03c-.06-.23-.1-.49-.15-.73-.06-.33-.12-.66-.17-.99,.98-.4,1.96-.81,2.99-1.17,.05-.02,.1-.03,.17-.07,.21,1.37,.48,2.81,.75,4.25-.5-.18-1-.35-1.5-.52-.7-.26-1.41-.52-2.1-.77Zm6.58,13.44c.42-.83,.76-1.59,1.18-2.43,1.38,.55,2.77,1.11,4.09,1.66,1.04,.49,2.15,.97,3.19,1.52,1.8,.83,3.6,1.73,5.54,2.42-6.37,1.94-12.68,4.3-18.78,7,1.18-2.01,2.08-4.16,2.98-6.24,.62-1.32,1.18-2.7,1.8-3.95Zm33.81-1.66c1.8-1.66,3.53-3.53,5.2-5.61,1.59,1.32,3.26,2.7,4.85,4.16-3.33,.35-6.72,.83-10.05,1.46Zm-65.26,26.74c.28-2.15,.62-4.23,1.04-6.24,2.56,.48,4.99,.76,7.34,.83-2.91,1.66-5.68,3.53-8.38,5.4Zm53.76,161.77c-.28-.69-.76-1.25-1.45-1.59-.21-.07-.42-.21-.55-.28-4.78-2.56-9.56-5.61-14.27-9.08-16.49-11.99-28.75-25.77-36.37-41.02-2.42-4.78-4.29-9.7-5.75-14.69-.35-1.18-.62-2.36-.9-3.53-.28-1.18-.49-2.36-.76-3.53-2.01-10.67-1.73-21.41,.9-31.11,7.62-27.64,34.85-53,66.3-61.66,12.26-3.39,27.09-5.47,37.9-5.33,9.15,.14,17.32,1.04,24.39,2.7,3.33,.83,6.51,1.8,9.42,2.98,4.37,1.73,8.18,3.81,11.43,6.3,.55,1.04,1.11,2.15,1.52,3.26l.14,.42c.83,2.29,1.66,4.71,2.42,7,.62,2.08,1.25,4.16,1.8,6.17,.55,1.87,1.11,3.74,1.52,5.61,2.98,11.99,4.64,23.83,5.06,35.33,0,1.66,.07,3.33,.07,4.92,.14,45.45-19.47,84.04-53.62,96.79-15.66,5.89-32.56,5.61-49.19,.35Zm14.55-205.01c-.9-.55-1.73-1.11-2.63-1.66-2.08-1.25-4.16-2.49-6.31-3.67,3.88-.35,7.76-.42,11.57-.35-.76,1.94-1.66,3.88-2.63,5.68Zm-4.16,6.3c-1.66,2.08-3.53,4.16-5.4,6.3l-1.11,1.25c-.97,1.18-1.04,2.98-.21,4.23-2.63,.62-5.27,1.25-7.9,2.01,.14-.14,.21-.28,.35-.42,.76-1.45,.42-3.39-.83-4.43-2.08-1.66-4.71-2.77-7.21-3.88l-1.66-.69c-1.25-.55-2.56-1.11-3.81-1.66,1.52-2.7,3.26-5.47,4.92-8.18,.76-1.25,1.52-2.49,2.29-3.74,.83-.21,1.73-.42,2.56-.55,7.41,3.46,13.16,6.58,18.01,9.77Zm-51.89,2.49l3.74,1.18c.97,.35,1.94,.62,2.91,.97,.49,.69,1.32,1.25,2.15,1.39l4.36,.69c0,.07,.07,.07,.14,.07-.69,1.39-1.39,2.7-1.94,4.09l-.76,1.52c-1.18,2.36-2.36,4.92-2.77,7.48-.21,1.59,.83,3.33,2.29,3.88,.14,0,.28,.07,.42,.07-2.49,1.11-4.85,2.36-7.21,3.6-.21-1.46-1.39-2.77-2.77-2.98-1.66-.35-3.33-.49-4.99-.69-1.8-.14-3.46-.35-5.06-.69,.28-1.18,.62-2.36,.97-3.53,1.73-5.4,4.09-10.95,6.17-15.73,.76-.48,1.59-.9,2.36-1.32Zm-41.71,56.05c.14,2.08,.42,4.09,.69,6.03-4.49,6.43-7.67,12.79-9.55,19.08-1.11-3.08-2.11-6.32-2.96-9.68,0-.02-.01-.04-.02-.07,.83-5.72,2.35-11.3,4.35-16.75,2.36,.69,4.85,1.18,7.48,1.39Z"/><path d="M389.23,356.59c5.34-2,7.86-8.33,5.67-14.18-.02-.1-.07-.18-.1-.26-2.4,.21-4.78,.42-7.16,1.07-4.43,1.21-8.38,3.4-12.08,6.02,.05,.12,.05,.25,.09,.37,2.19,5.85,8.28,8.98,13.58,6.98Z"/></g></g></g></svg>