<?xml version="1.0" encoding="UTF-8"?><svg xmlns="http://www.w3.org/2000/svg" viewBox="0 0 457.06 462.37"><g id="a"/><g id="b"><g id="c"><g><g><path d="M212.93,336.29c3.32,38.57-19.7,65.39-57.65,70.8-47.03,6.13-89.79-36.41-73.24-83.66,8.79-25.26,33.71-43.02,60.14-44.33,33.96-2.41,67.82,22.74,70.76,57.2h0Zm-4.46,.46c-2.26-22.87-21.65-40.74-43.54-44.53-27.45-5.41-58.92,9.44-68.07,36.35-9.51,27.45,8.91,55.72,36.17,62.83,20.52,5.86,43.59-.35,58.67-15.46,10.72-9.74,18.56-24.24,16.78-39.2h0Z"/><path d="M87.84,313.13c44.91-89.1,94.39-176.1,144.9-262.2l1.29-2.19,2.16-1.21c28.68-15.04,68.54-24.85,95.92-1.99,19.58,15.64,34.76,42.08,25.53,67.49-.07,.24-.27,.63-.4,.84l-18.47,31.93c-41.26,70.8-89.54,152.29-130.11,223.29-30.38,40.86-94.32,37-116.11-10.22-6.66-14.08-8.19-30.58-4.7-45.73h0Zm1.69,.69c-3.69,14.68-2.49,30.85,4.03,44.58,20.98,46.19,84.09,49.68,112.59,8.87,31.68-59.09,71.12-135.48,102.7-195.88,7.75-14.81,27.74-53.12,33.92-64.48,5.14-19.96-9.37-38.9-25.21-49.82-21.47-13.29-50.77-4.12-72.04,6.81l3.45-3.4c-12.66,21.36-25.4,42.67-38.31,63.9-39.01,64.03-78.72,127.42-121.12,189.41h0Z"/><path d="M156.85,283.49c46.82,31.4-50.28,50.38-27.73,73.54,27.41,28.15,74.66,6.35,77.68,5.78-3.11,13.88-28.31,36.21-54.99,37.71l-50.2-15.43-15.42-40.97,10.89-32.54c3.93-5.12,11.17-13.14,22.62-19.38,15.59-8.5,30.29-8.95,37.15-8.72Z"/><path d="M222.66,284.53c-1.65-10.88-4.63-21.54-8.85-31.69l6.73-2.8c4.45,10.7,7.59,21.93,9.33,33.4l-7.2,1.09Z"/><path d="M250.49,112.76l-1.73-7.08c13.35-3.27,26.21-8.29,38.24-14.94l3.53,6.38c-12.59,6.96-26.06,12.22-40.03,15.64Z"/><path d="M278.1,158.44c-1.72-7.31-5.8-14.03-11.47-18.94l4.77-5.51c6.83,5.9,11.73,13.99,13.8,22.78l-7.09,1.67Z"/><path d="M322.14,115.91c-.39-2.29-1.98-4.44-4.05-5.48l3.27-6.51c4.13,2.08,7.19,6.2,7.96,10.76l-7.18,1.23Z"/><path d="M166.67,215.85l-3.99-6.09c16.5-10.81,34.4-19.3,53.21-25.22l2.19,6.95c-18.17,5.72-35.47,13.92-51.4,24.36Z"/><path d="M261.37,228.55c-5.05-8.62-12.73-15.86-21.63-20.4l3.31-6.49c10.12,5.16,18.85,13.41,24.6,23.21l-6.29,3.68Z"/><path d="M236.87,166.54c-5.13-8.55-12.86-15.72-21.79-20.17l3.26-6.52c10.15,5.07,18.95,13.22,24.78,22.95l-6.25,3.75Z"/><rect x="261.38" y="178.94" width="19.53" height="7.29" transform="translate(-17.19 28.58) rotate(-5.85)"/><path d="M142.79,275.8l-2.5-6.85c3.23-1.18,5.96-3.8,8.85-6.56l1.2-1.14c10.95-10.35,24.21-18.57,38.36-23.75l2.51,6.84c-13.23,4.85-25.63,12.53-35.86,22.2l-1.16,1.11c-3.15,3.02-6.73,6.45-11.4,8.15Z"/><path d="M198.58,282.65c-.33-2.81-2.02-5.5-4.65-7.38-2.63-1.88-5.73-2.62-8.49-2l-1.56-7.12c4.77-1.04,9.98,.12,14.28,3.19,4.3,3.07,7.1,7.62,7.66,12.47l-7.24,.84Z"/><rect x="214.72" y="211.39" width="7.29" height="22.03" transform="translate(-93.18 213.19) rotate(-43.83)"/><path d="M206.93,172.61c-3.41-2.59-7.65-4.05-11.94-4.09l.08-7.29c5.84,.06,11.62,2.04,16.27,5.58l-4.41,5.8Z"/><path d="M242.99,132.63c-3.93-5.72-8.74-10.73-14.3-14.89l4.36-5.84c6.2,4.64,11.56,10.22,15.94,16.6l-6.01,4.13Z"/><rect x="253.35" y="69.68" width="16.86" height="7.29" transform="translate(113.75 301.34) rotate(-72.66)"/><path d="M304.13,72.94c-1.53-7.66-4.57-15.17-8.8-21.73l6.12-3.95c4.79,7.43,8.09,15.58,9.82,24.25l-7.15,1.43Z"/><path d="M326.97,93.28l-4.14-6c5.25-3.63,11.38-5.98,17.71-6.79l.93,7.23c-5.18,.67-10.2,2.59-14.5,5.56Z"/><rect x="298.26" y="123.96" width="7.29" height="16.86" transform="translate(-26.24 163.9) rotate(-29.16)"/><path d="M303.98,182.14c-.66-4.92-3.74-9.54-8.02-12.05l3.69-6.29c6.27,3.68,10.59,10.17,11.56,17.37l-7.22,.97Z"/><rect x="243.21" y="248.06" width="20.93" height="7.29" transform="translate(-24.32 27.16) rotate(-5.85)"/><path d="M227.46,319.29c-4.99-1.86-9.22-5.66-11.61-10.43l6.52-3.26c1.57,3.13,4.35,5.63,7.63,6.86l-2.54,6.83Z"/><rect x="151.25" y="334.54" width="7.29" height="9.84" transform="translate(-198.03 218.33) rotate(-46.53)"/><rect x="180.59" y="313.95" width="7.29" height="10.05" transform="translate(-184.11 316.45) rotate(-59.6)"/><rect x="186.26" y="346.6" width="7.29" height="2.79" transform="translate(-34.47 21.16) rotate(-5.85)"/><rect x="145.48" y="348.76" width="2.79" height="7.29" transform="translate(-35.14 16.8) rotate(-5.85)"/><path d="M174.99,365.03l-6.82-2.57c.39-1.03,.29-2.29-.26-3.47-.55-1.18-1.46-2.06-2.5-2.42l2.4-6.88c2.88,1,5.32,3.27,6.7,6.21,1.38,2.94,1.55,6.27,.47,9.13Z"/></g><g><path d="M331.16,271.83c-19.67-15.88-21.89-38.85-7.27-59.17,18.38-24.93,57.76-25.83,72.53,3.34,7.92,15.56,5.01,35.34-6.32,48.37-14.22,17.08-41.38,21.66-58.94,7.46h0Zm1.8-2.31c11.79,9.28,28.98,8.23,40.67-.37,14.96-10.48,22.2-32.02,13.67-48.5-8.63-16.89-30.28-21-45.95-11.38-12.04,7.01-19.55,20.69-19.25,34.62-.26,9.45,3.03,19.71,10.87,25.63h0Z"/><path d="M398.64,223.38c21.65,61.45,40.25,124.1,57.96,186.84l.45,1.6-.41,1.56c-5.89,20.31-19.3,43.52-42.44,46.08-16.22,2.15-35.54-2.66-43.33-18.5-.08-.14-.17-.41-.21-.57l-6.69-23.14c-14.69-51.46-31.23-111.05-46.33-162.27-5.5-32.79,25.23-61.16,57.33-50.07,9.64,3.23,18.11,9.97,23.67,18.47h0Zm-1.09,.48c-5.24-8.38-13.41-15.12-22.82-18.26-31.25-11.01-61.43,17.14-55.1,49.02,13.5,41.65,31.64,94.77,45.81,136.96,3.47,10.35,12.47,37.09,15.03,45.14,7.08,11.45,22.56,13.18,34.87,10.66,15.97-4.1,24.9-22.05,29.38-37.01l.04,3.16c-4.34-15.62-8.61-31.26-12.77-46.95-12.52-47.33-24.41-94.7-34.44-142.72h0Z"/><path d="M381.4,269.29c-35.96,7.85-.99-46.47-22.1-46.32-25.65,.18-36.76,32.29-37.86,33.97-5.13-7.74-4.25-29.71,7.11-42.96l29.97-16.67,26.27,11.27,10.4,19.85c.63,4.17,1.14,11.2-1.1,19.42-3.05,11.19-9.48,18.32-12.7,21.44Z"/><path d="M351.14,299.82c5.87,4.14,12.24,7.56,18.93,10.16l-1.72,4.44c-7.05-2.74-13.77-6.34-19.95-10.71l2.74-3.89Z"/><path d="M419.46,390.61l4.12,2.39c-4.5,7.76-7.95,16.1-10.26,24.77l-4.6-1.22c2.42-9.08,6.03-17.8,10.74-25.93Z"/><path d="M385.45,382.96c4.22,2.49,9.23,3.62,14.11,3.16l.44,4.74c-5.87,.55-11.9-.8-16.97-3.8l2.42-4.1Z"/><path d="M385.57,422.93c1.25,.85,2.99,1.07,4.41,.57l1.59,4.49c-2.85,1.01-6.17,.58-8.67-1.12l2.67-3.94Z"/><path d="M408.81,304.51l4.68,.87c-2.37,12.66-6.47,24.93-12.19,36.47l-4.26-2.11c5.52-11.15,9.49-23,11.77-35.23Z"/><path d="M360,343.37c6.34,1.52,13.23,1.18,19.39-.96l1.56,4.5c-7.01,2.43-14.84,2.82-22.06,1.09l1.11-4.63Z"/><path d="M400.28,359.87c6.35,1.45,13.22,1.05,19.35-1.14l1.6,4.48c-6.98,2.49-14.79,2.95-22.01,1.29l1.06-4.64Z"/><rect x="370.85" y="366.38" width="12.76" height="4.76" transform="translate(-145.59 439.08) rotate(-52.01)"/><path d="M391.37,266.15l4.35,1.92c-.91,2.06-.91,4.52-.91,7.14v1.08c-.08,9.84-2.21,19.8-6.17,28.81l-4.36-1.91c3.7-8.42,5.69-17.74,5.76-26.93v-1.05c0-2.85,0-6.08,1.32-9.05Z"/><path d="M362.92,289.33c1.47,1.12,3.5,1.54,5.58,1.15,2.07-.39,3.82-1.52,4.78-3.09l4.06,2.48c-1.66,2.72-4.57,4.65-7.96,5.29-3.39,.64-6.8-.1-9.34-2.03l2.88-3.79Z"/><rect x="375.16" y="323.51" width="14.38" height="4.76"/><path d="M410.97,343.02c2.77-.43,5.37-1.77,7.33-3.77l3.4,3.33c-2.67,2.72-6.22,4.55-9.99,5.14l-.74-4.7Z"/><path d="M413.49,378.09c4.47,.74,9.01,.74,13.48,0l.77,4.69c-4.99,.82-10.04,.82-15.03,0l.77-4.69Z"/><rect x="430.55" y="408.26" width="4.76" height="11.01" transform="translate(-145.83 259.94) rotate(-28.82)"/><path d="M413.95,433.89c4.3,2.74,9.21,4.71,14.22,5.68l-.91,4.67c-5.66-1.1-11-3.24-15.86-6.34l2.56-4.01Z"/><path d="M394.04,435.44l4.7,.76c-.67,4.11-2.33,8.06-4.81,11.41l-3.83-2.83c2.03-2.74,3.39-5.97,3.94-9.34Z"/><rect x="384.58" y="400.45" width="4.76" height="11.01" transform="translate(-103.78 677.45) rotate(-75.33)"/><path d="M362.58,384.43c2.62,1.91,6.18,2.55,9.31,1.67l1.29,4.58c-4.56,1.29-9.58,.39-13.41-2.41l2.81-3.84Z"/><rect x="345.74" y="326.9" width="13.67" height="4.76" transform="translate(-123.95 404.47) rotate(-52.01)"/><path d="M332.59,286.36c3.13-1.51,6.84-1.78,10.16-.75l-1.41,4.54c-2.19-.68-4.62-.5-6.68,.49l-2.06-4.29Z"/><rect x="352.7" y="240.68" width="6.42" height="4.76" transform="translate(-11.02 16.98) rotate(-2.69)"/><rect x="349.01" y="263.76" width="6.56" height="4.76" transform="translate(-59.04 105.69) rotate(-15.76)"/><rect x="333.68" y="254.77" width="4.76" height="1.82" transform="translate(-72.3 363.16) rotate(-52.01)"/><rect x="352.53" y="231.05" width="1.82" height="4.76" transform="translate(-48.07 368.31) rotate(-52.01)"/><path d="M334.78,240.95l4.29-2.05c.31,.65,.95,1.18,1.75,1.45,.8,.27,1.63,.24,2.27-.08l2.16,4.24c-1.78,.9-3.95,1.03-5.96,.35-2.01-.68-3.66-2.11-4.51-3.9Z"/></g><g><path d="M111.54,176.49c15.14,1.9,23.58,12.98,22.54,28.05-1.51,18.63-21.43,31.61-38.28,21.34-9.01-5.47-13.8-16.54-12.13-26.83,1.87-13.29,14.35-24.27,27.87-22.56h0Zm-.19,1.76c-9-1.01-17.49,4.99-20.75,13.11-4.35,10.13-1.22,23.49,8.4,29.23,9.8,5.93,22.21,1.16,27.2-8.76,3.95-7.43,3.46-16.83-1.12-23.88-2.87-4.93-7.81-9.15-13.72-9.69h0Z"/><path d="M92.31,222.79c-30.64-24.65-60.09-50.89-89.12-77.45l-.74-.68-.29-.93c-3.43-12.29-3.93-28.46,7.14-37.13,7.64-6.26,19.08-9.93,28.11-4.28,.09,.05,.22,.16,.29,.22l10.78,9.75c23.89,21.74,51.32,47.06,75.34,68.54,13.24,15.08,6.49,39.4-13.51,43.91-5.97,1.41-12.46,.64-18.01-1.96h0Zm.4-.59c5.35,2.63,11.68,3.5,17.51,2.12,19.53-4.28,26.07-28.31,12.7-42.66-20.16-17.08-46.35-38.57-67.03-55.72-5.07-4.21-18.19-15.07-22.06-18.38-7.27-3.63-15.76,.41-21.28,5.61-6.89,7.18-5.77,19.23-3.31,28.33l-1.02-1.61c7.19,6.64,14.35,13.3,21.47,20.03,21.46,20.31,42.62,40.84,63.02,62.29h0Z"/><path d="M86.57,193.76c15.96-15.46,15.27,23.53,26.06,16.75,13.11-8.24,8.6-28.25,8.63-29.46,5.09,2.34,11.62,13.89,10,24.3l-10.08,18.08-17.06,2.57-11.64-6.88c-1.65-1.94-4.14-5.39-5.6-10.31-1.99-6.71-.95-12.41-.3-15.04Z"/><path d="M92.4,168.48c-4.33-.26-8.68,0-12.94,.8l-.53-2.82c4.49-.83,9.08-1.12,13.64-.84l-.17,2.87Z"/><path d="M28.49,143.6l-2.87,.08c-.16-5.41-1.04-10.79-2.61-15.97l2.75-.83c1.64,5.43,2.56,11.05,2.73,16.72Z"/><path d="M48.37,136.72c-2.96,.06-5.89,1.08-8.25,2.86l-1.73-2.29c2.84-2.15,6.36-3.37,9.92-3.44l.06,2.87Z"/><path d="M35.6,116.25c-.91-.04-1.87,.4-2.45,1.11l-2.24-1.8c1.14-1.42,2.98-2.26,4.8-2.18l-.12,2.87Z"/><path d="M61.31,184.4l-2.68,1.04c-2.81-7.25-4.6-14.85-5.34-22.58l2.86-.27c.71,7.47,2.44,14.81,5.15,21.82Z"/><path d="M74.01,148.94c-3.74,1.24-7.16,3.6-9.64,6.65l-2.23-1.81c2.82-3.47,6.72-6.16,10.97-7.57l.9,2.73Z"/><path d="M48.09,153.28c-3.72,1.27-7.12,3.66-9.57,6.73l-2.24-1.79c2.79-3.49,6.65-6.21,10.88-7.66l.93,2.72Z"/><rect x="53.25" y="139.96" width="7.7" height="2.87" transform="translate(-89.65 182.84) rotate(-83.78)"/><path d="M82.45,198.54l-2.84,.4c-.19-1.34-.97-2.61-1.8-3.95l-.34-.56c-3.09-5.07-5.16-10.86-5.99-16.74l2.84-.4c.78,5.5,2.72,10.91,5.6,15.65l.33,.54c.9,1.46,1.93,3.12,2.2,5.06Z"/><path d="M89.68,177.6c-1.11-.11-2.29,.33-3.23,1.19-.94,.86-1.48,1.99-1.47,3.11h-2.87c0-1.91,.87-3.82,2.41-5.23,1.54-1.41,3.52-2.11,5.44-1.92l-.27,2.86Z"/><rect x="63.75" y="163.58" width="8.68" height="2.87" transform="translate(-76.67 60.57) rotate(-31.77)"/><path d="M47.96,165.32c-1.28,1.1-2.19,2.62-2.56,4.27l-2.8-.63c.51-2.25,1.74-4.31,3.49-5.81l1.87,2.18Z"/><path d="M35.52,148.13c-2.53,1.04-4.86,2.48-6.92,4.28l-1.89-2.16c2.3-2.01,4.89-3.61,7.71-4.78l1.1,2.65Z"/><rect x="12.78" y="132.68" width="2.87" height="6.64" transform="translate(-111.24 81.6) rotate(-60.59)"/><path d="M17.56,119.65c-3.08-.04-6.22,.51-9.1,1.6l-1.02-2.69c3.26-1.23,6.67-1.83,10.16-1.79l-.04,2.87Z"/><path d="M27.28,112.52l-2.65,1.1c-.97-2.32-1.37-4.88-1.16-7.38l2.86,.24c-.17,2.05,.16,4.14,.95,6.05Z"/><rect x="36.97" y="123.96" width="6.64" height="2.87" transform="translate(-35.08 17.38) rotate(-17.1)"/><path d="M59.63,128.7c-1.95-.15-3.99,.65-5.31,2.1l-2.12-1.94c1.93-2.11,4.79-3.24,7.65-3.02l-.22,2.86Z"/><rect x="78.17" y="152.38" width="8.25" height="2.87" transform="translate(-79.53 218.97) rotate(-83.78)"/><path d="M106.19,169.49c-1.13,1.77-2.94,3.09-4.97,3.61l-.72-2.78c1.34-.35,2.53-1.21,3.27-2.38l2.42,1.54Z"/><rect x="106.04" y="197.68" width="3.88" height="2.87" transform="translate(-93.72 96.05) rotate(-34.46)"/><rect x="100.52" y="184.69" width="3.96" height="2.87" transform="translate(-104 136.06) rotate(-47.53)"/><rect x="112.72" y="185.78" width="2.87" height="1.1" transform="translate(-83.45 279.63) rotate(-83.78)"/><rect x="111.76" y="201.84" width="1.1" height="2.87" transform="translate(-101.94 292.9) rotate(-83.78)"/><path d="M119.49,193.48l-1.55,2.42c-.36-.23-.86-.3-1.36-.19-.5,.11-.91,.39-1.14,.76l-2.45-1.49c.62-1.03,1.7-1.78,2.95-2.07,1.25-.29,2.54-.08,3.56,.57Z"/></g><g><path d="M224.96,414.12c8.95-8,19.88-7.28,28.28,1.13,10.27,10.52,7.67,29.04-7.12,33.72-7.9,2.52-16.94-.36-22.18-6.67-6.91-7.97-6.98-21.05,1.02-28.18h0Zm.94,1.02c-5.25,4.81-6.08,12.94-2.94,19.08,3.76,7.81,13.3,12.85,21.67,10.12,8.57-2.75,12.16-12.57,8.85-20.65-2.36-6.18-8.19-10.74-14.74-11.67-4.41-.85-9.46-.09-12.84,3.13h0Z"/><path d="M242.49,449.45c-30.45,5.43-61.22,9.35-91.96,12.84l-.78,.09-.7-.31c-9.06-4.31-18.91-12.37-18.33-23.41,.24-7.76,3.97-16.45,11.99-18.88,.07-.03,.21-.05,.28-.06l11.35-1.36c25.23-2.94,54.41-6.12,79.56-9.27,15.78-.07,26.72,16.5,19.06,30.69-2.25,4.27-6.06,7.72-10.47,9.67h0Zm-.14-.55c4.33-1.81,8.11-5.12,10.3-9.29,7.55-13.79-3.32-30.09-18.74-29.57-20.54,3.13-46.82,7.56-67.67,10.96-5.11,.83-18.33,3-22.3,3.58-5.91,2.44-7.9,9.56-7.67,15.52,.7,7.8,8.42,13.35,15.09,16.6l-1.48-.22c7.65-.83,15.3-1.64,22.97-2.39,23.13-2.24,46.23-4.18,69.49-5.2h0Z"/><path d="M222.3,437.85c-.92-17.45,21.84,3.1,23.39-6.8,1.88-12.03-12.31-19.69-13.01-20.34,4.02-1.81,14.24,.28,19.58,6.62l5.51,15.32-7.29,11.44-10.09,3.35c-2-.02-5.34-.33-9.01-2-5.01-2.29-7.85-5.85-9.07-7.59Z"/><path d="M210.32,421.33c-2.39,2.43-4.48,5.15-6.21,8.09l-1.95-1.15c1.82-3.09,4.03-5.96,6.55-8.53l1.61,1.58Z"/><path d="M162.55,446.38l-1.43,1.75c-3.29-2.7-6.93-4.96-10.82-6.7l.93-2.06c4.07,1.83,7.88,4.19,11.32,7.02Z"/><path d="M168.75,431.04c-1.49,1.79-2.4,4.05-2.56,6.37l-2.25-.16c.19-2.79,1.29-5.51,3.08-7.66l1.73,1.45Z"/><path d="M150.01,428.03c-.49,.52-.73,1.32-.6,2.02l-2.22,.4c-.25-1.41,.2-2.94,1.19-3.98l1.64,1.55Z"/><path d="M203.71,447.99l-.77,2.12c-5.75-2.08-11.18-4.94-16.15-8.5l1.32-1.83c4.8,3.44,10.05,6.21,15.6,8.21Z"/><path d="M189.24,422.15c-1.2,2.85-1.57,6.11-1.04,9.16l-2.23,.39c-.6-3.47-.18-7.17,1.18-10.42l2.08,.87Z"/><path d="M178.42,439.76c-1.17,2.86-1.5,6.11-.95,9.15l-2.22,.41c-.63-3.46-.25-7.16,1.08-10.41l2.09,.85Z"/><rect x="174.9" y="425.25" width="2.26" height="6.05" transform="translate(-243.85 233.05) rotate(-42.72)"/><path d="M223.01,442.76l-1.23,1.89c-.89-.58-2.05-.77-3.27-.97l-.51-.08c-4.6-.79-9.11-2.55-13.02-5.09l1.23-1.89c3.66,2.38,7.87,4.02,12.18,4.76l.49,.08c1.34,.22,2.85,.47,4.14,1.31Z"/><path d="M214.33,427.66c-.64,.6-.99,1.52-.96,2.53,.02,1,.42,1.91,1.08,2.48l-1.47,1.71c-1.15-.99-1.83-2.5-1.87-4.13-.04-1.64,.57-3.18,1.67-4.22l1.55,1.64Z"/><rect x="192.3" y="432.83" width="6.83" height="2.26" transform="translate(-264.15 557.01) rotate(-80.71)"/><path d="M185.5,446.05c0,1.33,.42,2.65,1.21,3.72l-1.82,1.34c-1.07-1.46-1.66-3.26-1.64-5.07h2.26Z"/><path d="M168.88,444.55c-.69,2.04-1.04,4.16-1.03,6.31h-2.26c0-2.4,.38-4.76,1.15-7.04l2.14,.72Z"/><rect x="148.06" y="449.79" width="5.22" height="2.26" transform="translate(-142.07 76.31) rotate(-19.53)"/><path d="M142.71,440.49c-1.61,1.8-2.91,3.96-3.75,6.22l-2.12-.78c.95-2.57,2.36-4.9,4.19-6.95l1.68,1.51Z"/><path d="M143.5,431.04l-.72,2.14c-1.88-.63-3.6-1.71-4.98-3.13l1.62-1.58c1.13,1.16,2.54,2.05,4.08,2.56Z"/><rect x="155.25" y="428.85" width="5.22" height="2.26" transform="translate(-299.18 399.59) rotate(-66.04)"/><path d="M169.81,420.21c-1.1,1.08-1.67,2.7-1.5,4.23l-2.24,.26c-.25-2.24,.55-4.52,2.16-6.1l1.58,1.61Z"/><rect x="195.28" y="416.51" width="2.26" height="6.49" transform="translate(-232.66 244.62) rotate(-42.72)"/><path d="M218.05,413.68c.47,1.58,.31,3.34-.43,4.82l-2.02-1.01c.49-.97,.59-2.13,.28-3.17l2.17-.64Z"/><rect x="235.02" y="426.79" width="3.05" height="2.26" transform="translate(-215.72 613.73) rotate(-83.4)"/><rect x="224.88" y="422.9" width="2.26" height="3.12" transform="translate(-46.39 28.17) rotate(-6.47)"/><rect x="231.72" y="416.52" width=".86" height="2.26" transform="translate(-221.75 268.31) rotate(-42.72)"/><rect x="240.12" y="427.07" width="2.26" height=".86" transform="translate(-226.02 277.1) rotate(-42.72)"/><path d="M239.15,418.18l.63,2.17c-.33,.1-.62,.35-.81,.71-.19,.36-.24,.74-.14,1.07l-2.15,.69c-.29-.9-.18-1.93,.29-2.82,.47-.89,1.27-1.55,2.17-1.82Z"/></g><g><path d="M235.74,384.14c-5.48-1.21-8.78-6.03-7.67-11.58,.41-3.2,2.94-6.48,4.57-8.79,1.9-2.6,.44-5.43,.14-8.63-3.14-20.63,8.46-41.91,27.13-50.59,16.1-7.37,26.73-1.98,38.78,9.29,10.53,8.82,9.67,14.23,8.84,26.81-.39,5.5,1.35,10,3.43,15.06,3.26,7.63,3.24,15.7-4.15,21.06-4.66,3.33-10.4,4.68-16.01,4.91-.57,.04-4.38,.22-5.05,.27-5.36,.32-10.58,.84-15.65,1.91-2.72,.55-5.38,1.34-8.12,1.76-8.73,1.45-17.69,.79-26.23-1.49h0Zm2.95-9.77c7.07,2.38,14.7,3.37,22.15,2.7,2.66-.22,5.28-.81,7.93-1.14,5.66-.75,11.33-.85,16.83-.74,2.25,.02,5.73,.23,7.95,.13,6.59-.2,15.07-3.3,15.06-10.98-.02-5.81-3.55-11.45-4.37-17.38-1.12-7.28,1.98-15.01-.46-21.98-1.24-3.5-4.46-6.2-7.28-8.7-4.85-4.3-10.07-8.73-16.37-10.46-12.52-3.21-25.37,5.66-32.2,15.66-7.38,10.74-9.28,23.9-5.62,36.04,1.49,6.02-.46,9.86-3.65,14.67-.43,.72-.83,1.67-.68,2.4,.03,.01,0-.18-.12-.37-.05-.09-.15-.18-.2-.23-.06-.05-.06-.05-.01-.02,.1,.07,.47,.23,1.04,.41h0Z"/><path d="M248.84,341.22c-.8-.37-1.65-.61-2.53-.7l.32-3.14c1.23,.13,2.42,.46,3.54,.98l-1.34,2.86Z"/><path d="M268.98,323.91c-4.08-.71-8.23-.76-12.33-.15l-.47-3.13c4.43-.66,8.92-.61,13.34,.16l-.54,3.11Z"/><path d="M284.65,326.23c-.48,.33-1.03,.55-1.62,.62l-.36-3.14c.11-.01,.23-.1,.28-.2,.05-.1,.05-.25,0-.34l2.76-1.54c.57,1.02,.59,2.29,.06,3.33-.26,.51-.65,.95-1.11,1.27Z"/><path d="M298.5,333.48c-.76-.91-1.62-1.75-2.54-2.49l1.99-2.45c1.07,.87,2.07,1.85,2.96,2.91l-2.42,2.04Z"/><path d="M279.47,350.45l-2.72,1.6c-.28-.48-1.08-.8-1.82-1.05-1.33-.46-2.7-.83-4.07-1.13l.66-3.09c1.49,.32,2.99,.73,4.44,1.23,1.29,.44,2.71,1.08,3.52,2.44Z"/><path d="M293.61,347.26l-2.86,1.35c-.27-.58-.83-1.04-1.46-1.19l.75-3.07c1.55,.38,2.89,1.47,3.57,2.92Z"/><path d="M270.63,341.05l-2.98-1.05c.61-1.74,1.46-3.38,2.53-4.88l2.58,1.83c-.9,1.26-1.61,2.64-2.12,4.1Z"/><path d="M257.11,368.85l-2.92,1.22c-.66-1.58-1.52-3.06-2.57-4.41l2.5-1.94c1.22,1.57,2.22,3.29,2.99,5.13Z"/><path d="M258.79,354.88c-1.27-.34-2.68-.22-3.87,.33l-1.32-2.87c1.88-.86,4.01-1.04,6.01-.51l-.82,3.05Z"/><path d="M282.65,365.49l-2.86,1.33c-.53-1.13-1.39-2.14-2.44-2.83l1.75-2.63c1.54,1.02,2.77,2.45,3.55,4.13Z"/><path d="M299.29,365.91c-.99-1.03-2.14-1.88-3.42-2.52l1.41-2.83c1.61,.8,3.05,1.86,4.29,3.16l-2.28,2.19Z"/><path d="M275.77,313.59l-2.72,1.62c-.79-1.34-1.52-2.74-2.14-4.17l2.89-1.27c.57,1.31,1.23,2.6,1.96,3.82Z"/></g><g><path d="M441.82,162.95c2.47-3.41,1.92-7.77-1.47-10.34-1.83-1.6-4.89-2.17-6.95-2.66-2.37-.51-2.95-2.83-4.38-4.78-8.54-13.16-25.68-19.33-40.5-14.89-12.73,3.89-16.02,12.23-17.16,24.58-1.52,10.21,1.67,12.83,8.41,19.48,2.97,2.9,4.23,6.3,5.59,10.18,1.98,5.92,6.01,10.44,12.85,9.77,4.29-.45,8.18-2.56,11.45-5.23,.34-.26,2.57-2.06,2.97-2.37,3.17-2.5,6.37-4.81,9.75-6.74,1.8-1.05,3.69-1.93,5.44-3.06,5.63-3.54,10.34-8.38,14-13.93h0Zm-6.53-4.02c-2.79,4.87-6.58,9.23-11.1,12.58-1.61,1.2-3.37,2.18-5.02,3.32-3.55,2.4-6.79,5.18-9.83,7.98-1.26,1.13-3.11,2.99-4.4,4.04-3.8,3.18-10.12,5.67-13.95,1.35-2.89-3.27-3.72-8.2-6.22-11.95-3.01-4.65-8.61-7.45-10.72-12.58-1.05-2.58-.59-5.71-.26-8.53,.58-4.84,1.3-9.93,3.98-14.05,5.44-8.06,17.08-9.48,25.92-7.27,9.51,2.35,17.15,8.8,21.15,17.45,2.17,4.13,5.18,5.31,9.38,6.43,.6,.19,1.3,.53,1.58,1.01,0,.02-.09-.1-.12-.27-.02-.08,0-.18,0-.23,0-.05,.01-.06,0-.01-.02,.09-.15,.37-.38,.75h0Z"/><path d="M413.03,145.36c.26-.61,.63-1.17,1.07-1.66l-1.75-1.61c-.63,.68-1.13,1.46-1.5,2.32l2.18,.94Z"/><path d="M393.06,145.69c1.94-2.44,4.25-4.54,6.85-6.24l-1.3-1.99c-2.82,1.84-5.32,4.11-7.42,6.75l1.86,1.48Z"/><path d="M385.42,154.81c.44-.05,.86-.2,1.22-.46l-1.36-1.95c-.07,.05-.18,.06-.26,.03-.08-.03-.15-.12-.17-.2l-2.32,.51c.19,.86,.81,1.58,1.63,1.9,.4,.16,.84,.21,1.26,.16Z"/><path d="M381.25,165.81c-.02-.89,.04-1.79,.18-2.67l-2.35-.38c-.17,1.03-.24,2.07-.21,3.11l2.37-.06Z"/><path d="M400.42,165.84l2.33-.46c-.08-.41,.21-.99,.49-1.5,.52-.92,1.1-1.82,1.73-2.67l-1.91-1.41c-.68,.93-1.31,1.9-1.88,2.9-.5,.89-.99,1.96-.76,3.13Z"/><path d="M390.88,171.11l2.28-.67c-.14-.46-.05-1,.22-1.4l-1.95-1.35c-.68,.99-.89,2.27-.55,3.42Z"/><path d="M400.69,156.15l1.15-2.08c-1.21-.67-2.51-1.17-3.86-1.48l-.53,2.31c1.13,.26,2.22,.68,3.24,1.24Z"/><path d="M422.17,165.03l2.25-.77c-.42-1.22-.67-2.48-.76-3.76l-2.37,.16c.1,1.49,.39,2.96,.88,4.37Z"/><path d="M414.26,158.01c.54-.83,1.39-1.46,2.34-1.75l-.69-2.27c-1.49,.45-2.78,1.42-3.63,2.72l1.98,1.31Z"/><path d="M406.14,175.89l2.28-.68c-.27-.9-.28-1.9-.04-2.81l-2.3-.61c-.36,1.35-.33,2.76,.06,4.1Z"/><path d="M397,184.43c.04-1.07,.27-2.13,.67-3.12l-2.2-.89c-.5,1.25-.79,2.57-.84,3.92l2.37,.09Z"/><path d="M384.1,143.28l2.33-.45c-.22-1.15-.52-2.3-.88-3.41l-2.26,.73c.33,1.02,.6,2.08,.8,3.13Z"/></g><g><path d="M142.07,146.31c-7.13,4.99-16.1,3.7-21.28-3.39-3.23-3.83-4.32-10.16-5.26-14.44-.97-4.9-5.75-6.19-9.72-9.21-26.87-18.07-39.02-53.65-29.35-84.09C84.93,9.06,102.25,2.55,127.78,.62c21.13-2.78,26.41,3.88,39.91,18.03,5.88,6.23,12.85,8.95,20.81,11.89,12.15,4.28,21.35,12.77,19.72,26.84-1.08,8.83-5.56,16.79-11.19,23.45-.56,.69-4.34,5.23-5,6.05-5.27,6.46-10.14,12.97-14.24,19.89-2.22,3.68-4.11,7.55-6.5,11.13-7.5,11.5-17.66,21.04-29.23,28.41h0Zm-8.07-13.62c10.14-5.59,19.28-13.27,26.34-22.48,2.54-3.28,4.61-6.88,7.02-10.25,5.08-7.25,10.91-13.84,16.81-20.01,2.38-2.56,6.27-6.31,8.49-8.95,6.68-7.74,12.04-20.69,3.26-28.74-6.66-6.07-16.8-7.96-24.45-13.25-9.49-6.36-15.08-18.02-25.6-22.55-5.3-2.26-11.77-1.4-17.58-.82-10,1.02-20.54,2.35-29.14,7.73-16.81,10.94-20.15,34.93-15.89,53.24,4.53,19.7,17.57,35.69,35.29,44.23,8.45,4.61,10.78,10.87,12.94,19.57,.36,1.25,1.04,2.7,2.03,3.3,.04-.02-.2-.19-.55-.25-.16-.04-.36-.02-.48-.01-.11,.02-.12,.02-.03,0,.19-.04,.76-.3,1.56-.75h0Z"/><path d="M106.76,86.31c-1.27,.52-2.43,1.25-3.45,2.16l-3.25-3.67c1.43-1.27,3.06-2.29,4.84-3.02l1.87,4.53Z"/><path d="M108.11,45.11c-5.1,3.92-9.51,8.61-13.11,13.93l-4.06-2.74c3.9-5.76,8.67-10.84,14.19-15.08l2.99,3.89Z"/><path d="M127.2,29.64c-.12,.9-.45,1.76-.99,2.5l-3.97-2.88c.1-.14,.13-.37,.07-.53-.06-.16-.24-.32-.4-.36l1.13-4.77c1.76,.42,3.24,1.73,3.87,3.42,.31,.84,.4,1.74,.29,2.61Z"/><path d="M150.03,21.43c-1.84-.08-3.69,.02-5.51,.28l-.71-4.85c2.12-.31,4.29-.42,6.43-.33l-.21,4.9Z"/><path d="M149.45,60.99l-1.03,4.79c-.84-.18-2.04,.39-3.11,.97-1.92,1.04-3.79,2.21-5.56,3.47l-2.84-4c1.93-1.37,3.97-2.64,6.06-3.78,1.86-1.01,4.08-1.97,6.48-1.46Z"/><path d="M160.64,41.47l-1.46,4.68c-.95-.3-2.06-.14-2.89,.42l-2.73-4.08c2.06-1.38,4.71-1.76,7.08-1.02Z"/><path d="M129.43,61.22l-4.33,2.31c-1.34-2.52-2.33-5.22-2.93-8.01l4.79-1.02c.5,2.35,1.33,4.61,2.46,6.73Z"/><path d="M147.02,105.85l-1.67,4.61c-2.49-.9-5.1-1.47-7.74-1.69l.41-4.89c3.07,.26,6.1,.92,9,1.97Z"/><path d="M132.82,89.27c-1.72,1.09-3.07,2.83-3.69,4.77l-4.67-1.5c.98-3.05,3.02-5.68,5.73-7.4l2.63,4.14Z"/><path d="M169.98,73.13l-1.48,4.67c-1.85-.59-3.91-.65-5.79-.19l-1.18-4.76c2.79-.69,5.71-.6,8.45,.27Z"/><path d="M187.93,54.55c-2.22,.05-4.4,.48-6.47,1.27l-1.75-4.58c2.6-1,5.33-1.53,8.12-1.59l.11,4.9Z"/><path d="M103.45,26.53l-1,4.8c-2.36-.49-4.72-1.14-7.01-1.92l1.59-4.64c2.1,.72,4.26,1.31,6.43,1.77Z"/></g></g></g></g></svg>