<?xml version="1.0" encoding="utf-8"?>
<svg viewBox="363.612 36.649 357.942 357.942" xmlns="http://www.w3.org/2000/svg">
  <g id="a" transform="matrix(1, 0, 0, 1, 367.14917, 137.034714)"/>
  <g id="g-1" transform="matrix(1, 0, 0, 1, 371.327667, 96.277962)"/>
  <g id="b" transform="matrix(1, 0, 0, 1, 371.327667, 96.277962)">
    <g id="c">
      <g>
        <path d="M343.37,151.2c-.89,3.78-1.68,7.58-2.68,11.34-2.02,7.61-5.56,14.56-9.41,21.37-1.43,2.53-3.72,3.38-6.29,3.9-10.16,2.08-20.32,4.14-30.48,6.22-27.85,5.71-55.71,11.41-83.56,17.14-14.53,2.98-28.96,6.5-43.59,8.89-21.08,3.45-38.72-3.45-52.56-19.75-2.44-2.87-4.38-6.17-6.81-9.63-10.27,22.15-27.44,34.68-51.9,35.24-16.37,.37-30.42-6.25-41.64-18.36-21.46-23.17-18.62-60.49,5.77-80.7,24.64-20.42,66.36-17.06,85.28,17.15,3.85-5.99,7.72-12,11.69-18.19-.51-.03-1.41-.17-2.3-.13-27.11,1.26-51.78-18.2-56.99-45.8-5.62-29.82,14.78-59.71,44.66-64.81,8.13-1.39,16.42-1.81,24.63-2.65,10.33-1.05,20.66-2.09,30.99-3.12,9.89-.98,19.78-1.94,29.67-2.92,10.33-1.03,20.66-2.08,31-3.11,11.11-1.1,22.22-2.2,33.34-3.24,1.19-.11,2.54-.03,3.62,.42,16.89,6.97,32,16.43,42.79,31.61,11.07,15.57,12.67,32.5,6.51,50.33-1.48,4.29-3.43,8.42-5.18,12.68,3.16,1.29,6.31,2.42,9.31,3.85,11.84,5.63,22.01,13.24,28.49,24.97,1.66,3,2.82,6.28,5.62,8.51v3.35c-1.36,1.79-.84,3.58,0,5.37v10.06Zm-187.86,10.76c-2.5,2.32-2.53,3.56-.15,6.17l.69,.17-.44-.41c-.05-2-.1-4-.15-6l.22-.21-.16,.28Zm120.08,24.02c.99-.02,2.01,.11,2.96-.08,13.87-2.8,27.73-5.63,41.58-8.51,.92-.19,2.19-.58,2.56-1.27,2.04-3.76,3.85-7.65,6.09-12.19-1.44,.39-1.96,.47-2.44,.67-15.26,6.25-30.53,12.48-45.77,18.79-1.71,.71-3.28,1.78-4.91,2.68l-.42,.42,.34-.5Zm17.65-141.15c-4.05,1.13-8,2.21-11.93,3.33-15.76,4.48-31.56,8.78-47.89,10.69-5.87,.69-11.73,1-17.53-1.01-2.01-.7-4.44-.69-6.59-.36-7.27,1.11-14.53,2.31-21.72,3.83-6.28,1.33-12.45,3.12-18.51,4.67-.28,5.17-.53,9.89-.78,14.62,.55,.12,.87,.24,1.19,.25,11.6,.44,23.21,1.04,34.82,1.25,8.66,.16,17.17,.16,25.77-2.55,15.49-4.88,31.34-8.62,47.06-12.76,6.65-1.75,13.34-3.31,20.06-4.97,.24-6.12-1.28-11.48-3.95-16.99ZM112.93,114.59c24.8,.05,44.75-19.86,44.76-44.66,0-24.73-20.02-44.87-44.66-44.9-24.57-.04-44.81,20.19-44.83,44.8-.02,24.75,19.92,44.71,44.73,44.77Zm100.32,61.4c3.28,.16,6.28,.35,9.28,.43,12.84,.36,25.68,.77,38.52,.94,2.95,.04,6.15-.21,8.84-1.31,17.24-7.01,34.36-14.31,51.54-21.45,3.26-1.36,6.63-2.45,10.35-3.82v-8.72c-1.15,.26-2.21,.47-3.25,.75-14.95,4.03-29.83,8.39-45.21,10.6-7.74,1.11-15.45,2.19-23.15-.6-1.78-.65-4.02-.48-5.96-.15-8.24,1.39-16.47,2.83-24.65,4.54-5.29,1.11-10.48,2.72-15.5,4.06-.28,5.1-.54,9.75-.82,14.73ZM21.19,198.09c.84-1.08,1.49-1.97,2.21-2.8,2.23-2.58,2.42-4.96,.57-8.15-7.89-13.62-5.11-31.66,6.29-42.87,16.94-16.65,44.54-13.15,56.82,7.21,7.99,13.24,6.75,29.56-3.27,41.53-9.19,10.98-20.96,15.13-34.99,12.53-3.56-.66-6.98-2.09-10.76-3.26l-1.63,7.76c17.62,9.3,42.45,5.06,56.2-14.42,13.17-18.66,9.84-44.57-7.69-59.65-17.28-14.85-43.23-14.14-59.87,1.62-16.65,15.76-18.84,41.83-3.86,60.49ZM176.51,124.67c-16.84-8.71-41.27-4.4-54.86,14.28-12.9,17.73-10.65,43.43,5.31,58.38,16.88,15.81,42.04,16.79,59.61,2.23,18.29-15.15,20.18-40.25,10.14-56.45-1.06,.82-2.1,1.62-3.13,2.45-1.1,.89-2.19,1.81-3.21,2.66,8.92,19.39,1.88,37.19-11.97,46.89-12.94,9.06-31.45,8.62-44.59-2.97-11.89-10.49-15.69-28.58-8.38-43.11,3.72-7.4,9.36-13.01,16.83-16.66,9.91-4.84,20.01-4.66,30.32-.71,1.34-2.38,2.58-4.6,3.92-6.99Zm-22.62-15.81c.61-.03,1.34-.03,2.07-.12,5.97-.79,11.94-1.6,17.91-2.4,10.72-1.44,21.45-2.86,32.17-4.3,12.49-1.68,24.98-3.38,37.47-5.06,12.71-1.71,25.43-3.39,38.13-5.14,2.63-.36,5.85-.17,7.67-1.63,1.97-1.58,2.75-4.74,3.79-7.32,1.13-2.8,1.96-5.72,3.08-9.04-1.42,.21-2.08,.26-2.7,.41-7.68,1.91-15.37,3.75-23.01,5.78-13.14,3.48-26.24,7.08-39.36,10.65-2.46,.67-4.87,1.91-7.35,2.05-6.9,.37-13.83,.49-20.74,.37-11.95-.21-23.9-.68-35.84-1.03-.88-.03-1.77,0-2.14,0-3.86,5.82-7.47,11.27-11.13,16.79Zm34.21,8.56c3.77,3.34,7.2,6.17,10.37,9.27,1.4,1.37,2.74,1.97,4.68,1.96,14.08-.06,28.16-.02,42.25-.05,1.33,0,2.7-.1,3.98-.42,18.15-4.59,36.29-9.22,54.42-13.87,2.01-.51,3.97-1.17,5.96-1.76l.11-.77c-2.96-1.41-5.85-3.02-8.91-4.17-1.79-.67-3.88-.99-5.79-.83-9.34,.78-18.67,1.79-28,2.69-10.11,.98-20.22,1.93-30.33,2.93-12.89,1.27-25.77,2.55-38.65,3.86-3.26,.33-6.5,.75-10.08,1.16ZM264.32,17.6c-.24-.45-.29-.73-.45-.82-5.95-3.69-12.01-6.96-19.42-4.73-.73,.22-1.56,.11-2.33,.18-9.99,.98-19.98,1.97-29.98,2.97-10.1,1.01-20.2,2.05-30.3,3.05-9.99,.99-19.99,1.94-29.98,2.94-2.85,.28-5.68,.66-8.79,1.02,3.68,3.25,7.12,6.05,10.27,9.16,1.48,1.46,2.9,2.1,4.96,2.09,13.85-.08,27.7-.02,41.55-.07,1.76,0,3.56-.27,5.28-.67,8.79-2.04,17.59-4.05,26.32-6.3,10.96-2.82,21.87-5.86,32.86-8.82Zm-97.48,124.43c-8.5-4.59-22.23-1.31-29.22,8.29-6.98,9.59-6.1,23.45,2.36,32.27,8.36,8.72,22.35,10.15,32.22,3.29,9.78-6.79,13.74-20,8.77-30.06-1.42,1.12-2.73,2.31-4.19,3.27-2.4,1.6-3.4,3.49-3.37,6.61,.07,8.33-7.35,15.07-15.77,14.89-8.33-.17-15.33-7.36-15.22-15.63,.11-8.49,7.4-16.1,15.74-15.29,4.11,.4,5.6-1.09,6.9-4.18,.51-1.2,1.19-2.33,1.79-3.48Zm-121.25,50.5c10.25,5.51,23.21,2.1,30.65-7.76,7.14-9.46,6.13-23.3-2.34-32.25-8.15-8.61-22.4-10.06-32.21-3.26-9.22,6.39-13.58,19.23-9.33,28.11,2.72-1.41,5.43-2.81,8.07-4.17-.06-1.25-.15-2.14-.15-3.02,0-10.03,9.61-17.66,19.17-15.25,7.48,1.88,12.81,9.24,11.91,16.45-1.04,8.38-7.32,14.06-15.54,14.17-1.15,.02-2.58,.06-3.39,.7-2.34,1.86-4.44,4.04-6.84,6.28ZM286.22,35.24c.21-.4,.43-.81,.64-1.21-2.34-2.05-4.82-3.96-6.97-6.2-1.89-1.97-3.74-2.03-6.23-1.36-19.04,5.11-38.13,10.02-57.16,15.14-8.25,2.22-16.54,3.35-25.1,3.04-8.25-.3-16.53-.07-24.79-.06-1.05,0-2.09,.13-3.45,.22,1.41,3.6,2.64,6.76,3.9,9.97,.96-.18,1.61-.26,2.24-.44,11.19-3.03,22.37-6.07,33.93-7.36,5.66-.63,11.45-1.4,16.92,.5,3.45,1.2,6.76,1.44,10.16,.76,10.81-2.17,21.63-4.31,32.37-6.78,7.91-1.82,15.7-4.13,23.55-6.22Zm35.98,85.87c-20.67,5.33-40.65,10.39-60.58,15.65-8.15,2.15-16.3,3.41-24.77,3.09-8.48-.32-16.98-.08-25.48-.06-.96,0-1.92,.11-3.21,.19,1.4,3.57,2.66,6.82,3.94,10.08,.89-.2,1.44-.29,1.97-.44,11.19-3.05,22.38-6.11,33.93-7.41,5.76-.65,11.66-1.44,17.25,.52,3.22,1.12,6.27,1.31,9.51,.84,17.8-2.58,35.12-7.3,52.43-12.02,.48-.13,.91-.48,1.73-.93-2.38-3.36-4.62-6.51-6.73-9.49Zm-121.3,80.71c20.47-4.2,40.7-8.35,60.92-12.5l-.09-.96c-3.89,0-7.78,.08-11.67-.02-12.73-.32-25.46-.72-38.19-1.02-.97-.02-2.42,.3-2.85,.97-2.75,4.28-5.28,8.71-8.13,13.53Zm-14.57-71.37c-4.25,6.46-4.33,6.75-2.55,8.65,2.02-1.65,4.04-3.31,6.32-5.18-1.34-1.23-2.45-2.25-3.78-3.48Z"/>
        <path d="M112.83,106.18c-19.83-.04-36.29-16.51-36.27-36.3,.01-19.87,16.88-36.65,36.61-36.41,19.99,.25,36.21,16.56,36.21,36.41,0,20.03-16.41,36.33-36.54,36.3Zm.05-11.2c13.88,.04,25.24-11.19,25.29-25,.05-13.77-11.24-25.33-25.08-25.23-13.98,.1-25.12,10.46-25.22,25.02-.1,15.19,12.14,25.24,25.01,25.21Z"/>
        <path d="M112.99,85.37c-8.53,0-15.6-7.02-15.61-15.49,0-8.45,7.1-15.51,15.61-15.5,8.53,0,15.57,7.02,15.56,15.51,0,8.52-7.01,15.48-15.57,15.48Zm0-11.2c2.38,0,4.29-1.82,4.36-4.17,.07-2.41-2.05-4.5-4.49-4.42-2.29,.08-4.28,2.14-4.23,4.38,.05,2.27,2.06,4.2,4.36,4.21Z"/>
      </g>
    </g>
  </g>
</svg>